HARKTOPUS (2010) NL SUBz 1080P   


Verenigde Staten
Horror / Science-Fiction
89 minuten

geregisseerd door Declan O'Brien
met Eric Roberts, Sara Malakul Lane en Michael Gaglio

Een wetenschapper (Eric Roberts) creëert een nieuw geheim wapen voor het 
leger: de 'sharktopus', een kruising tussen een haai en een octopus die 
bestuurd kan worden via elektrische implantaten. De bedoeling is dat de 
sharktopus gebruikt wordt om de moderne piraten aan te pakken. Maar dan 
begeeft het besturingssysteem het en worden de stranden van Mexico het 
slachtoffer van de moordlustige creatie.

English

Storyline
A half-shark, half-octopus creature created for the military, creates a whole lot of terror in Mexico while a scientist who helped created it tries to capture/kill it



...Ondertitels: Nederlands, Engels 
...Audio: English (AC3)
...Container: x264 (MKV)



  Category : Video 
  Format : x264HD 
  Source : Retail 
  Subtitle : English subs Dutch subs optional  
  Genre : Horror Science Fiction  
  Language : English audio  
 
 
  http://www.moviemeter.nl/film/66792 
http://www.imdb.com/title/tt1619880

TBS


MEDIA INFO

General
Complete name                    : SHARKTOPUS_(2010)_NL_SUBz_1080P_\Sharktopus.2010.NLSUBS.x264.BluRay.1080-Legend\Sharktopus.2010.NLSUBS.x264.BluRay.1080-Legend.mkv
Format                           : Matroska
File size                        : 6.56 GiB
Duration                         : 1h 29mn
Overall bit rate                 : 10.5 Mbps
Encoded date                     : UTC 2011-04-22 07:53:47
Writing application              : mkvmerge v2.3.0 ('Freak U') built on Sep  8 2008 18:32:16
Writing library                  : libebml v0.7.7 + libmatroska v0.8.1

Video
ID                               : 1
Format                           : AVC
Format/Info                      : Advanced Video Codec
Format profile                   : High@L4.1
Format settings, CABAC           : Yes
Format settings, ReFrames        : 4 frames
Muxing mode                      : Container profile=Unknown@4.1
Codec ID                         : V_MPEG4/ISO/AVC
Duration                         : 1h 29mn
Bit rate                         : 9 901 Kbps
Width                            : 1 920 pixels
Height                           : 1 080 pixels
Display aspect ratio             : 16:9
Frame rate                       : 23.976 fps
Color space                      : YUV
Chroma subsampling               : 4:2:0
Bit depth                        : 8 bits
Scan type                        : Progressive
Bits/(Pixel*Frame)               : 0.199
Stream size                      : 6.03 GiB (92%)
Writing library                  : x264 core 114 r1924 08d04a4
Encoding settings                : cabac=1 / ref=4 / deblock=1:-1:-1 / analyse=0x3:0x112 / me=umh / subme=7 / psy=1 / psy_rd=1.00:0.00 / mixed_ref=1 / me_range=16 / chroma_me=1 / trellis=1 / 8x8dct=1 / cqm=0 / deadzone=21,11 / fast_pskip=1 / chroma_qp_offset=-2 / threads=12 / sliced_threads=0 / nr=0 / decimate=1 / interlaced=0 / constrained_intra=0 / bframes=3 / b_pyramid=0 / b_adapt=2 / b_bias=0 / direct=1 / weightb=1 / open_gop=0 / weightp=2 / keyint=240 / keyint_min=24 / scenecut=40 / intra_refresh=0 / rc_lookahead=40 / rc=2pass / mbtree=1 / bitrate=9901 / ratetol=1.0 / qcomp=0.60 / qpmin=0 / qpmax=69 / qpstep=4 / cplxblur=20.0 / qblur=0.5 / ip_ratio=1.40 / aq=1:1.00

Audio
ID                               : 2
Format                           : AC-3
Format/Info                      : Audio Coding 3
Mode extension                   : CM (complete main)
Codec ID                         : A_AC3
Duration                         : 1h 29mn
Bit rate mode                    : Constant
Bit rate                         : 640 Kbps
Channel(s)                       : 6 channels
Channel positions                : Front: L C R, Side: L R, LFE
Sampling rate                    : 48.0 KHz
Bit depth                        : 16 bits
Stream size                      : 408 MiB (6%)
Title                            : AC3

Text #1
ID                               : 3
Format                           : UTF-8
Codec ID                         : S_TEXT/UTF8
Codec ID/Info                    : UTF-8 Plain Text
Title                            : English
Language                         : English

Text #2
ID                               : 4
Format                           : UTF-8
Codec ID                         : S_TEXT/UTF8
Codec ID/Info                    : UTF-8 Plain Text
Title                            : Nederlands
Language                         : Dutch

Menu
00:00:00.000                     : en:00:00:00.000
00:01:38.223                     : en:00:01:38.223
00:08:16.621                     : en:00:08:16.621
00:13:14.919                     : en:00:13:14.919
00:21:09.143                     : en:00:21:09.143
00:32:17.060                     : en:00:32:17.060
00:42:56.949                     : en:00:42:56.949
00:50:20.851                     : en:00:50:20.851
00:56:08.699                     : en:00:56:08.699
01:02:12.812                     : en:01:02:12.812
01:15:52.631                     : en:01:15:52.631
01:26:27.891                     : en:01:26:27.891

